<svg preserveAspectRatio="none" width="100%" height="100%" overflow="visible" style="display: block;" viewBox="0 0 60 22.4243" fill="none" xmlns="http://www.w3.org/2000/svg">
<g id="Vector">
<path d="M57.3495 9.12455C52.3854 6.81925 44.9185 6.5987 43.4107 6.57796L36.2902 2.04668C34.1861 0.707694 31.7559 0 29.262 0H20.8926C18.7258 0 16.5561 0.512226 14.6181 1.48125L10.1599 3.71027C8.81682 4.38187 7.38022 4.81675 5.89007 5.00308L2.4157 5.43737C1.03851 5.6094 0 6.78585 0 8.1737V13.7833C0 15.4252 1.10262 16.887 2.68136 17.3381L6.83342 18.5244C7.54663 20.7825 9.66068 22.4243 12.1515 22.4243C14.2233 22.4243 16.0333 21.2877 16.9946 19.606H43.9445C44.9058 21.2877 46.7159 22.4243 48.7876 22.4243C51.8622 22.4243 54.3635 19.9229 54.3635 16.8484C54.3635 13.7738 51.8622 11.2725 48.7876 11.2725C45.7131 11.2725 43.2118 13.7737 43.2118 16.8484C43.2118 17.1899 43.2442 17.5236 43.3033 17.8482H17.6357C17.6948 17.5235 17.7273 17.1897 17.7273 16.8484C17.7273 13.7738 15.2259 11.2725 12.1514 11.2725C9.15209 11.2725 6.69948 13.6533 6.58124 16.6241L3.16417 15.6478C2.33625 15.4113 1.75781 14.6447 1.75781 13.7833V11.1517H2.75765C3.24304 11.1517 3.63656 10.7581 3.63656 10.2728C3.63656 9.78736 3.24304 9.39385 2.75765 9.39385H1.75781V8.1737C1.75781 7.67049 2.13433 7.24393 2.63367 7.18159L6.10804 6.74729C7.79647 6.53624 9.42408 6.04335 10.946 5.28245L11.3469 5.08206L12.9726 6.7003C14.0258 7.75346 15.4261 8.33354 16.9154 8.33354H18.7273C19.2127 8.33354 19.6063 7.94003 19.6063 7.45464C19.6063 6.96925 19.2127 6.57573 18.7273 6.57573H16.9154C16.7618 6.57573 16.6099 6.56565 16.4597 6.54784L17.4308 2.25832C18.5537 1.92879 19.7237 1.75769 20.8927 1.75769H25.3637V6.57561H22.4851C21.9997 6.57561 21.6062 6.96913 21.6062 7.45452C21.6062 7.93991 21.9997 8.33342 22.4851 8.33342H43.1514C43.2347 8.33342 51.538 8.36366 56.6092 10.7187C56.9067 10.8568 57.1718 11.0461 57.3983 11.2725H56.303C55.8176 11.2725 55.4241 11.666 55.4241 12.1514C55.4241 12.6368 55.8176 13.0303 56.303 13.0303H58.2263C58.2357 13.1254 58.2422 13.2211 58.2422 13.3181V16.4367C58.2422 17.3074 57.859 17.8482 57.2424 17.8482C56.757 17.8482 56.3634 18.2417 56.3634 18.7271C56.3634 19.2125 56.757 19.606 57.2424 19.606C58.0207 19.606 58.7279 19.2857 59.2339 18.7041C59.735 18.1279 60 17.344 60 16.4367V13.3181C59.9999 11.5183 58.9595 9.87221 57.3495 9.12455ZM48.7876 13.0304C50.8929 13.0304 52.6057 14.7432 52.6057 16.8485C52.6057 18.9538 50.8929 20.6666 48.7876 20.6666C46.6824 20.6666 44.9696 18.9538 44.9696 16.8485C44.9696 14.7432 46.6824 13.0304 48.7876 13.0304ZM12.1515 13.0304C14.2568 13.0304 15.9696 14.7432 15.9696 16.8485C15.9696 18.9538 14.2568 20.6666 12.1515 20.6666C10.0462 20.6666 8.33342 18.9538 8.33342 16.8485C8.33342 14.7432 10.0463 13.0304 12.1515 13.0304ZM14.7959 5.93483C14.5896 5.79655 14.3952 5.63706 14.2155 5.45741L13.0091 4.25097L15.4042 3.05343C15.4206 3.04523 15.4373 3.03761 15.4537 3.02953L14.7959 5.93483ZM27.1214 1.75769H29.262C31.421 1.75769 33.5249 2.37046 35.3465 3.52956L40.1332 6.57573H27.1214V1.75769Z" fill="#4D6173"/>
<path d="M20.6061 14.0907C20.1207 14.0907 19.7272 14.4842 19.7272 14.9696C19.7272 15.455 20.1207 15.8485 20.6061 15.8485H40.3332C40.8186 15.8485 41.2121 15.455 41.2121 14.9696C41.2121 14.4842 40.8186 14.0907 40.3332 14.0907H20.6061Z" fill="#4D6173"/>
</g>
</svg>
