<svg preserveAspectRatio="none" width="100%" height="100%" overflow="visible" style="display: block;" viewBox="0 0 60 24.3033" fill="none" xmlns="http://www.w3.org/2000/svg">
<path id="Vector" d="M57.3681 9.09024C52.9414 6.91617 47.046 6.62156 45.4397 6.58184L41.1859 1.61906C40.3039 0.590038 39.0209 0 37.6656 0H29.9999C28.4793 0 27.2422 1.23715 27.2422 2.75766V17.8484H17.6576C17.2348 15.1901 14.9271 13.1514 12.1516 13.1514C9.37617 13.1514 7.06852 15.19 6.6457 17.8484H2.75766C2.20629 17.8484 1.75781 17.3998 1.75781 16.8485V12.0911H2.75766C3.24305 12.0911 3.63656 11.6975 3.63656 11.2121C3.63656 10.7268 3.24305 10.3332 2.75766 10.3332H1.75781V8.39402C1.75781 8.36062 1.78488 8.33356 1.81828 8.33356H24.3635C24.8489 8.33356 25.2424 7.94004 25.2424 7.45465C25.2424 6.96926 24.8489 6.57574 24.3635 6.57574H1.81828C0.815625 6.57574 0 7.39148 0 8.39414V16.8486C0 18.3693 1.23715 19.6063 2.75766 19.6063H6.64559C7.0684 22.2646 9.37605 24.3033 12.1515 24.3033C14.927 24.3033 17.2346 22.2647 17.6575 19.6063H43.2817C43.7045 22.2646 46.0122 24.3033 48.7876 24.3033C51.8622 24.3033 54.3635 21.8019 54.3635 18.7274C54.3635 15.6529 51.8622 13.1515 48.7876 13.1515C46.0122 13.1515 43.7045 15.1901 43.2817 17.8485H29V2.75777C29 2.20641 29.4486 1.75793 29.9999 1.75793H30.9997V5.5766C30.9997 7.09688 32.2369 8.33356 33.7574 8.33356H45.0298C45.098 8.33356 51.9029 8.36449 56.5931 10.668C56.9118 10.8245 57.1925 11.0302 57.4281 11.2727H56.3027C55.8173 11.2727 55.4238 11.6663 55.4238 12.1516C55.4238 12.637 55.8173 13.0305 56.3027 13.0305H58.2307C58.2376 13.1116 58.2422 13.1932 58.2422 13.2757L58.2421 16.8485C58.2421 17.3999 57.7935 17.8485 57.2421 17.8485C56.7567 17.8485 56.3632 18.242 56.3632 18.7274C56.3632 19.2128 56.7567 19.6063 57.2421 19.6063C58.7626 19.6063 59.9998 18.3693 59.9999 16.8486L60 13.2757C60 11.4914 58.9916 9.88758 57.3681 9.09024ZM12.1515 22.5454C10.0463 22.5454 8.33344 20.8325 8.33344 18.7273C8.33344 16.622 10.0463 14.9092 12.1515 14.9092C14.2568 14.9092 15.9696 16.622 15.9696 18.7273C15.9696 20.8325 14.2568 22.5454 12.1515 22.5454ZM48.7876 14.9093C50.8929 14.9093 52.6057 16.6221 52.6057 18.7274C52.6057 20.8327 50.8929 22.5455 48.7876 22.5455C46.6823 22.5455 44.9695 20.8327 44.9695 18.7274C44.9695 16.6221 46.6823 14.9093 48.7876 14.9093ZM32.7575 5.5766V1.75793H37.6655C38.5069 1.75793 39.3035 2.12426 39.8511 2.76316L43.1191 6.57586H33.7574C33.2061 6.57574 32.7575 6.12762 32.7575 5.5766Z" fill="#4D6173"/>
</svg>
