<svg preserveAspectRatio="none" width="100%" height="100%" overflow="visible" style="display: block;" viewBox="0 0 60 24.3032" fill="none" xmlns="http://www.w3.org/2000/svg">
<g id="Union">
<path fill-rule="evenodd" clip-rule="evenodd" d="M29.2619 0C31.7558 3.38295e-06 34.1861 0.70769 36.2901 2.04666L43.4107 6.57782C44.9188 6.59869 52.3859 6.81942 57.3498 9.12493C58.9597 9.8727 59.9999 11.5187 60 13.3182V17.7879C59.9999 19.3084 58.7627 20.5455 57.2422 20.5455C56.7568 20.5455 56.3633 20.152 56.3633 19.6666C56.3633 19.1813 56.7568 18.7877 57.2422 18.7877C57.7936 18.7877 58.2422 18.3391 58.2422 17.7877V13.3182C58.2422 13.2213 58.2357 13.1256 58.2263 13.0304H56.3029C55.8175 13.0304 55.424 12.6369 55.424 12.1515C55.424 11.6662 55.8175 11.2726 56.3029 11.2726H57.3983C57.1719 11.0464 56.9069 10.8571 56.6096 10.719C51.5385 8.36363 43.2346 8.33346 43.1512 8.33346H8.1341C7.47844 8.33346 6.89052 7.99484 6.56146 7.42777C6.23229 6.86071 6.23009 6.18238 6.55539 5.61309L8.75838 1.75781H7.5096C6.58194 1.75781 5.70629 2.20852 5.16711 2.96333L2.46906 6.74079C2.00383 7.39211 1.75781 8.15952 1.75781 8.95991V9.39398H2.75756C3.24294 9.394 3.63647 9.7875 3.63647 10.2729C3.63646 10.7583 3.24294 11.1518 2.75756 11.1518H1.75769V15.3438C1.75769 16.3026 2.47348 17.128 3.42269 17.2636L6.6672 17.7271C7.14017 15.1285 9.41862 13.1514 12.1515 13.1514C15.226 13.1514 17.7274 15.6528 17.7274 18.7273C17.7274 18.7476 17.7261 18.7676 17.7258 18.7878H43.2132C43.2129 18.7676 43.2117 18.7476 43.2117 18.7273C43.2117 15.6528 45.713 13.1514 48.7876 13.1514C51.8621 13.1514 54.3634 15.6528 54.3635 18.7273C54.3635 21.8018 51.8621 24.3032 48.7876 24.3032C46.3496 24.3032 44.2734 22.7299 43.5177 20.5458H17.4213C16.6656 22.7299 14.5895 24.3032 12.1515 24.3032C9.33846 24.3032 7.00653 22.2086 6.63012 19.4974L3.17424 19.0037C1.36464 18.7452 0 17.1718 0 15.3438V8.95991C0 7.79096 0.359212 6.67027 1.03866 5.71895L3.73672 1.9416C4.60508 0.7259 6.01546 0 7.5096 0H29.2619ZM12.1515 14.9092C10.0464 14.9092 8.33348 16.6219 8.33346 18.7273C8.33346 20.8327 10.0463 22.5454 12.1515 22.5454C14.2568 22.5454 15.9696 20.8327 15.9696 18.7273C15.9696 16.622 14.2568 14.9092 12.1515 14.9092ZM48.7877 14.9092C46.6824 14.9092 44.9696 16.6219 44.9696 18.7273C44.9696 20.8327 46.6824 22.5454 48.7877 22.5454C50.8929 22.5454 52.6058 20.8327 52.6058 18.7273C52.6057 16.6219 50.8929 14.9092 48.7877 14.9092ZM17.7273 1.75792V6.57588H26.1682L25.48 1.75792H17.7273ZM27.2558 1.75792L27.944 6.57588H40.1331L35.3464 3.52969C33.5249 2.3706 31.4208 1.75793 29.2619 1.75792H27.2558ZM10.7827 1.75781L8.08134 6.48524C8.07443 6.49731 8.06411 6.51555 8.08157 6.54566C8.09903 6.57575 8.12016 6.57576 8.13399 6.57576H15.9695V1.75781H10.7827Z" fill="#4D6173"/>
<path d="M40.333 15.0302C40.8184 15.0302 41.2119 15.4237 41.2119 15.9091C41.2119 16.3945 40.8184 16.788 40.333 16.788H20.606C20.1206 16.788 19.7271 16.3945 19.7271 15.9091C19.7271 15.4237 20.1206 15.0302 20.606 15.0302H40.333Z" fill="#4D6173"/>
</g>
</svg>
