<svg width="431" height="272" viewBox="0 0 431 272" fill="none" xmlns="http://www.w3.org/2000/svg">
<g clip-path="url(#clip0_9062_13689)">
<rect width="431" height="272" rx="12" fill="url(#paint0_linear_9062_13689)"/>
<g opacity="0.5">
<path d="M293.347 28C176.705 33.7546 229.583 43.3074 266.958 48.3672C304.333 53.427 380.553 56.7812 484.668 80.3828C586.275 103.405 620.607 132.502 620.607 132.502V274H215.405C215.405 274 280.62 248.162 343.118 215.65H320.814C254.694 247.123 187.463 272.479 187.463 272.479L215.405 274H-172V206.977C-164.176 205.933 185.815 144.662 260.369 106.956C320.527 76.5336 218.341 55.228 198.725 50.1123C179.108 44.9966 141.363 36.8295 194.875 32.7441C246.237 28.8236 277.503 28.3337 284.518 28.2725L293.347 28ZM284.501 28.3389C262.429 29.461 187.415 31.9534 193.306 38.6465C201.13 47.52 312.66 57.879 382.19 77.5469C451.022 97.0232 449.025 119.942 449.025 119.942C449.025 136.995 417.213 164.302 377.074 186.813H394.079C427.213 166.047 452.511 144.882 455.515 127.311C463.558 80.2431 311.673 61.9165 264.821 52.7754C264.821 52.7754 192.307 41.9726 195.198 37.2363C197.869 32.8715 272.808 28.9379 284.501 28.3389Z" fill="url(#paint1_linear_9062_13689)"/>
</g>
<path d="M377.283 206.591H354.418V247.545H377.283V206.591Z" fill="#F16623"/>
<path d="M355.874 227.06C355.87 223.118 356.765 219.227 358.491 215.681C360.218 212.135 362.73 209.027 365.838 206.591C361.983 203.568 357.353 201.687 352.476 201.164C347.599 200.64 342.673 201.496 338.261 203.632C333.849 205.768 330.129 209.098 327.526 213.243C324.923 217.387 323.543 222.178 323.543 227.068C323.543 231.958 324.923 236.749 327.526 240.893C330.129 245.038 333.849 248.368 338.261 250.504C342.673 252.641 347.599 253.496 352.476 252.972C357.353 252.449 361.983 250.568 365.838 247.545C362.728 245.107 360.214 241.996 358.488 238.447C356.761 234.898 355.868 231.004 355.874 227.06Z" fill="#E41F27"/>
<path d="M408.115 227.06C408.114 231.946 406.733 236.734 404.132 240.876C401.531 245.018 397.814 248.347 393.406 250.483C388.997 252.62 384.075 253.477 379.201 252.957C374.327 252.438 369.698 250.562 365.842 247.545C368.951 245.107 371.464 241.997 373.192 238.45C374.92 234.903 375.818 231.011 375.818 227.068C375.818 223.125 374.92 219.233 373.192 215.686C371.464 212.139 368.951 209.029 365.842 206.591C369.696 203.575 374.324 201.7 379.197 201.179C384.069 200.659 388.99 201.515 393.398 203.649C397.806 205.784 401.524 209.111 404.126 213.25C406.728 217.389 408.11 222.175 408.115 227.06Z" fill="#F99F1E"/>
<path d="M392.625 188.044C390.585 188.044 389.605 187.164 389.605 184.704V179.744H388.165V177.644H389.605V174.624H392.345V177.644H394.185V179.744H392.345V184.684C392.345 185.764 392.725 185.924 393.425 185.924C393.745 185.924 393.905 185.904 394.285 185.844V187.844C393.665 187.984 393.185 188.044 392.625 188.044Z" fill="white"/>
<path d="M383.177 187.864V177.644H385.917V187.864H383.177ZM383.137 176.204V173.624H385.977V176.204H383.137Z" fill="white"/>
<path d="M374.439 188.163C371.779 188.163 369.939 186.103 369.939 182.743C369.939 179.383 371.779 177.323 374.439 177.323C375.979 177.323 377.019 178.103 377.479 178.743H377.519V173.563H380.259V187.863H377.519V186.783H377.479C377.019 187.383 375.979 188.163 374.439 188.163ZM372.759 182.743C372.759 184.743 373.599 186.063 375.119 186.063C376.599 186.063 377.479 184.863 377.479 182.743C377.479 180.643 376.599 179.443 375.119 179.443C373.599 179.443 372.759 180.743 372.759 182.743Z" fill="white"/>
<path d="M362.831 188.183C359.551 188.183 357.631 185.923 357.631 182.743C357.631 179.663 359.511 177.303 362.831 177.303C366.171 177.303 367.931 179.363 367.931 182.903V183.483H360.391C360.411 185.003 361.411 186.083 362.911 186.083C364.291 186.083 364.851 185.323 365.051 184.743H367.831C367.271 186.783 365.651 188.183 362.831 188.183ZM360.391 181.663H365.151C365.151 180.243 364.251 179.363 362.811 179.363C361.451 179.363 360.511 180.223 360.391 181.663Z" fill="white"/>
<path d="M352.761 182.903V187.863H350.021V177.643H352.761V179.403H352.801C353.321 178.263 354.181 177.503 355.401 177.503C355.701 177.503 355.961 177.503 356.301 177.563V180.023C356.041 179.983 355.861 179.963 355.641 179.963C354.061 179.963 352.761 181.043 352.761 182.903Z" fill="white"/>
<path d="M342.881 188.183C339.721 188.183 337.701 185.943 337.701 182.743C337.701 179.563 339.721 177.303 342.841 177.303C345.661 177.303 347.441 179.043 347.701 181.423H344.921C344.821 180.503 344.381 179.423 342.881 179.423C341.241 179.423 340.521 180.823 340.521 182.743C340.521 184.663 341.221 186.063 342.881 186.063C344.361 186.063 344.821 185.043 344.921 184.023H347.701C347.541 186.443 345.701 188.183 342.881 188.183Z" fill="white"/>
<g clip-path="url(#clip1_9062_13689)">
<path d="M100.888 124.152C100.757 125.683 100.023 127.102 98.8449 128.1C97.6671 129.098 96.1401 129.596 94.5947 129.486H55.0965C53.5512 129.596 52.0242 129.098 50.8463 128.1C49.6685 127.102 48.9346 125.683 48.8036 124.152V95.3784C48.9346 93.8472 49.6685 92.4286 50.8463 91.4302C52.0242 90.4318 53.5512 89.9339 55.0965 90.0442H94.5947C96.1342 89.9339 97.6554 90.4295 98.8291 91.4238C100.003 92.418 100.734 93.8309 100.865 95.3563L100.888 124.152Z" fill="#9E9E9E"/>
<path d="M100.888 123.51C100.751 125.039 100.016 126.454 98.8391 127.451C97.6625 128.448 96.1388 128.949 94.5947 128.844H55.0965C53.5512 128.955 52.0242 128.456 50.8463 127.458C49.6685 126.46 48.9346 125.041 48.8036 123.51V94.7364C48.9346 93.2052 49.6685 91.7866 50.8463 90.7882C52.0242 89.7898 53.5512 89.2919 55.0965 89.4022H94.5947C96.1364 89.2979 97.6576 89.7988 98.8305 90.7966C100.003 91.7944 100.734 93.2093 100.865 94.7364L100.888 123.51Z" fill="url(#paint2_linear_9062_13689)"/>
<g opacity="0.8">
<path opacity="0.8" d="M65.5867 89.3137H65.1851V128.888H65.5867V89.3137Z" fill="#232323"/>
<path opacity="0.8" d="M84.3537 89.3137H83.9743V128.888H84.3537V89.3137Z" fill="#232323"/>
<path opacity="0.8" d="M65.1842 100.867H48.5815V100.535H65.1618L65.1842 100.867Z" fill="#232323"/>
<path opacity="0.8" d="M101.021 100.535H84.4181V100.867H101.021V100.535Z" fill="#232323"/>
<path opacity="0.8" d="M84.2867 95.9094H65.2964V96.2414H84.2867V95.9094Z" fill="#232323"/>
<path opacity="0.8" d="M84.2645 121.938H65.2741V122.27H84.2645V121.938Z" fill="#232323"/>
<path opacity="0.8" d="M65.2731 108.858H48.6705V109.19H65.2731V108.858Z" fill="#232323"/>
<path opacity="0.8" d="M101.021 108.968H84.4181V109.3H101.021V108.968Z" fill="#232323"/>
<path opacity="0.8" d="M65.2731 117.822H48.6705V117.49H65.2731V117.822Z" fill="#232323"/>
<path opacity="0.8" d="M101.021 117.335H84.4181V117.667H101.021V117.335Z" fill="#232323"/>
</g>
</g>
<path d="M112.986 26.074H111.354C106.512 26.074 103.169 28.8031 102.414 33.3673L101.042 41.7644C100.675 44.0153 101.042 45.8695 102.128 47.1316C103.256 48.4584 105.092 49.1356 107.586 49.1356H109.233C113.885 49.1356 117.478 46.1524 118.216 41.7045L119.603 33.2882C119.963 31.1427 119.603 29.3533 118.549 28.1103C117.405 26.7691 115.48 26.074 112.986 26.074ZM109.255 44.0669C109.094 44.0681 108.935 44.0335 108.79 43.9656C108.645 43.8978 108.516 43.7983 108.414 43.6745C108.312 43.5507 108.239 43.4057 108.2 43.2501C108.161 43.0945 108.157 42.9321 108.189 42.7748L109.901 32.4132C109.965 32.0658 110.148 31.7516 110.419 31.524C110.689 31.2965 111.03 31.1698 111.383 31.1655C111.544 31.1645 111.702 31.1992 111.847 31.2671C111.993 31.3351 112.121 31.4346 112.223 31.5583C112.325 31.6821 112.398 31.827 112.437 31.9826C112.476 32.1381 112.479 32.3004 112.448 32.4576L110.737 42.8192C110.673 43.1666 110.489 43.4808 110.219 43.7083C109.949 43.9359 109.608 44.0626 109.255 44.0669Z" fill="white"/>
<path d="M70.9891 29.7357C70.9891 29.7357 71.0263 29.3761 70.6607 28.5539C69.9919 27.1828 68.4673 26.1136 66.3878 26.0741H66.1948C65.0853 26.0894 63.9804 26.222 62.8988 26.4696L62.1173 31.2363C62.2609 31.1881 62.4117 31.1646 62.5632 31.1668C62.7239 31.1649 62.883 31.199 63.0289 31.2665C63.1747 31.334 63.3037 31.4332 63.4063 31.5569C63.5088 31.6806 63.5825 31.8257 63.6218 31.9816C63.6611 32.1374 63.6651 32.3001 63.6335 32.4577L60.9667 48.6623H68.1641L70.8405 32.4109C70.9047 32.0636 71.0875 31.7494 71.3577 31.5221C71.6279 31.2947 71.9688 31.1683 72.3219 31.1644C72.4827 31.1623 72.642 31.1963 72.788 31.2637C72.934 31.3311 73.0631 31.4303 73.1658 31.554C73.2685 31.6778 73.3423 31.8229 73.3817 31.9789C73.4211 32.1348 73.4251 32.2976 73.3934 32.4553L70.7314 48.6623H77.9684L80.7095 32.0022C81.099 29.9215 80.9156 28.4401 80.1102 27.4548C79.4126 26.6158 78.2908 26.0945 76.735 26.0669H76.6428C73.3671 26.0669 71.8185 28.2447 70.9903 29.7333" fill="white"/>
<path d="M58.9154 40.4009L60.1679 32.73C60.5119 30.6565 60.2255 29.0432 59.2726 27.9357C58.2262 26.7024 56.3613 26.0756 53.7748 26.0756H52.4563C50.2066 26.0756 44.8466 26.7024 43.871 32.6066L42.1606 42.991C41.8801 44.6977 42.1606 46.1072 43.0727 47.1692C44.1874 48.4792 46.1243 49.1636 48.6796 49.1636H49.9981C54.6245 49.1636 57.8511 46.8048 58.4815 43.0054L58.6397 42.0609H51.7779C51.7576 42.1807 51.6329 42.8663 51.6329 42.8663C51.5659 43.2138 51.3811 43.5275 51.1097 43.7546C50.8383 43.9817 50.4969 44.1082 50.1431 44.1128C49.9827 44.1152 49.8239 44.0814 49.6785 44.0138C49.5331 43.9462 49.4048 43.8466 49.3032 43.7225C49.2017 43.5984 49.1295 43.4529 49.0921 43.297C49.0547 43.141 49.053 42.9787 49.0871 42.822C49.0871 42.822 49.3137 41.5323 49.5078 40.4021L58.9154 40.4009ZM53.4272 32.4567C53.4272 32.4567 53.1155 34.2642 52.8842 35.6114H50.3313C50.571 34.2342 50.8826 32.4124 50.8826 32.4124C50.9498 32.0649 51.1346 31.7512 51.4059 31.5239C51.6772 31.2967 52.0185 31.1698 52.3724 31.1647C52.5327 31.1626 52.6914 31.1968 52.8367 31.2646C52.982 31.3324 53.1101 31.4321 53.2114 31.5563C53.3128 31.6805 53.3849 31.826 53.4222 31.9819C53.4596 32.1378 53.4613 32.3001 53.4272 32.4567Z" fill="white"/>
<path d="M95.2464 19.7063L93.596 29.7299C93.596 29.7299 93.6331 29.3703 93.2675 28.5469C92.5987 27.1769 91.0742 26.1078 88.9947 26.0683H88.695C85.8184 26.0683 83.8827 28.6751 83.4537 31.2509L81.3825 43.5853C81.1105 45.225 81.464 46.7771 82.3522 47.8199C83.1121 48.7128 84.1992 49.1611 85.4888 49.1611H85.6003C88.6387 49.1611 90.898 46.1431 90.898 46.1431L90.4833 48.6601H97.6184L102.381 19.7039L95.2464 19.7063ZM93.1477 32.4566L91.4385 42.8398C91.3739 43.1872 91.1908 43.5015 90.9205 43.729C90.6501 43.9565 90.3092 44.0832 89.9559 44.0875C89.7955 44.0888 89.6368 44.0542 89.4914 43.9863C89.346 43.9184 89.2176 43.819 89.1156 43.6952C89.0135 43.5714 88.9403 43.4264 88.9013 43.2708C88.8624 43.1151 88.8586 42.9528 88.8904 42.7955L90.6007 32.4123C90.6646 32.0648 90.8474 31.7503 91.1176 31.5227C91.3879 31.2951 91.7289 31.1685 92.0822 31.1646C92.2426 31.1634 92.4013 31.198 92.5467 31.2658C92.692 31.3337 92.8204 31.4332 92.9225 31.5569C93.0246 31.6807 93.0978 31.8257 93.1367 31.9814C93.1757 32.137 93.1794 32.2994 93.1477 32.4566Z" fill="white"/>
<path d="M36.2235 19.6666L34.1416 32.2959C34.0217 33.0007 33.3193 33.5616 32.6122 33.5496C31.905 33.5376 31.4628 32.9503 31.5838 32.2504L33.6525 19.6654H26.3413C26.3413 19.6654 24.2138 32.6099 24.2042 32.6855H24.1982C23.8063 34.7794 23.9897 36.2692 24.7975 37.2604C25.4999 38.0994 26.6289 38.6292 28.1931 38.6567H28.2866C31.1475 38.6567 32.6997 37.0039 33.6034 35.5884L32.8231 40.3203C32.5403 42.0355 31.8954 43.1214 30.0077 43.3252C28.4723 43.487 27.0233 42.9152 27.0233 42.9152L26.1243 48.4179C26.1243 48.4179 27.885 49.0795 30.6789 49.119C36.1767 49.1969 38.8879 46.8298 39.6813 42.0127L43.4437 19.6666H36.2235Z" fill="white"/>
</g>
<defs>
<linearGradient id="paint0_linear_9062_13689" x1="215.5" y1="0" x2="215.5" y2="272" gradientUnits="userSpaceOnUse">
<stop stop-color="#2D2D55"/>
<stop offset="1" stop-color="#090912"/>
</linearGradient>
<linearGradient id="paint1_linear_9062_13689" x1="224.304" y1="-5.11815" x2="224.304" y2="281.012" gradientUnits="userSpaceOnUse">
<stop stop-color="white"/>
<stop offset="1" stop-color="white" stop-opacity="0"/>
</linearGradient>
<linearGradient id="paint2_linear_9062_13689" x1="48.692" y1="109.167" x2="100.888" y2="109.167" gradientUnits="userSpaceOnUse">
<stop offset="0.01" stop-color="#BABABA"/>
<stop offset="0.23" stop-color="#E8E8E8"/>
<stop offset="0.52" stop-color="#BABABA"/>
<stop offset="0.76" stop-color="#DEDEDE"/>
<stop offset="0.88" stop-color="#E3E3E3"/>
<stop offset="1" stop-color="#EDEDED"/>
</linearGradient>
<clipPath id="clip0_9062_13689">
<rect width="431" height="272" rx="12" fill="white"/>
</clipPath>
<clipPath id="clip1_9062_13689">
<rect width="52.4411" height="40.1502" fill="white" transform="translate(48.582 89.3137)"/>
</clipPath>
</defs>
</svg>
