<svg width="431" height="272" viewBox="0 0 431 272" fill="none" xmlns="http://www.w3.org/2000/svg">
<g clip-path="url(#clip0_9062_13784)">
<rect width="431" height="272" rx="12" fill="url(#paint0_linear_9062_13784)"/>
<g opacity="0.5">
<path d="M293.347 28C176.705 33.7546 229.583 43.3074 266.958 48.3672C304.333 53.427 380.553 56.7812 484.668 80.3828C586.275 103.405 620.607 132.502 620.607 132.502V274H215.405C215.405 274 280.62 248.162 343.118 215.65H320.814C254.694 247.123 187.463 272.479 187.463 272.479L215.405 274H-172V206.977C-164.176 205.933 185.815 144.662 260.369 106.956C320.527 76.5336 218.341 55.228 198.725 50.1123C179.108 44.9966 141.363 36.8295 194.875 32.7441C246.237 28.8236 277.503 28.3337 284.518 28.2725L293.347 28ZM284.501 28.3389C262.429 29.461 187.415 31.9534 193.306 38.6465C201.13 47.52 312.66 57.879 382.19 77.5469C451.022 97.0232 449.025 119.942 449.025 119.942C449.025 136.995 417.213 164.302 377.074 186.813H394.079C427.213 166.047 452.511 144.882 455.515 127.311C463.558 80.2431 311.673 61.9165 264.821 52.7754C264.821 52.7754 192.307 41.9726 195.198 37.2363C197.869 32.8715 272.808 28.9379 284.501 28.3389Z" fill="url(#paint1_linear_9062_13784)"/>
</g>
<path d="M377.283 200.317H354.418V241.271H377.283V200.317Z" fill="#F16623"/>
<path d="M355.874 220.786C355.87 216.844 356.765 212.953 358.491 209.407C360.218 205.861 362.73 202.753 365.838 200.317C361.983 197.294 357.353 195.413 352.476 194.889C347.599 194.366 342.673 195.221 338.261 197.357C333.849 199.494 330.129 202.824 327.526 206.969C324.923 211.113 323.543 215.904 323.543 220.794C323.543 225.683 324.923 230.474 327.526 234.619C330.129 238.763 333.849 242.094 338.261 244.23C342.673 246.366 347.599 247.222 352.476 246.698C357.353 246.175 361.983 244.294 365.838 241.271C362.728 238.833 360.214 235.722 358.488 232.173C356.761 228.624 355.868 224.73 355.874 220.786Z" fill="#E41F27"/>
<path d="M408.115 220.786C408.114 225.672 406.733 230.46 404.132 234.601C401.531 238.743 397.814 242.073 393.406 244.209C388.997 246.345 384.075 247.203 379.201 246.683C374.327 246.164 369.698 244.288 365.842 241.271C368.951 238.833 371.464 235.723 373.192 232.176C374.92 228.629 375.818 224.737 375.818 220.794C375.818 216.851 374.92 212.959 373.192 209.412C371.464 205.865 368.951 202.755 365.842 200.317C369.696 197.3 374.324 195.425 379.197 194.905C384.069 194.385 388.99 195.241 393.398 197.375C397.806 199.51 401.524 202.836 404.126 206.976C406.728 211.115 408.11 215.9 408.115 220.786Z" fill="#F99F1E"/>
<path d="M392.625 181.769C390.585 181.769 389.605 180.889 389.605 178.429V173.469H388.165V171.369H389.605V168.349H392.345V171.369H394.185V173.469H392.345V178.409C392.345 179.489 392.725 179.649 393.425 179.649C393.745 179.649 393.905 179.629 394.285 179.569V181.569C393.665 181.709 393.185 181.769 392.625 181.769Z" fill="white"/>
<path d="M383.177 181.589V171.369H385.917V181.589H383.177ZM383.137 169.929V167.349H385.977V169.929H383.137Z" fill="white"/>
<path d="M374.439 181.889C371.779 181.889 369.939 179.829 369.939 176.469C369.939 173.109 371.779 171.049 374.439 171.049C375.979 171.049 377.019 171.829 377.479 172.469H377.519V167.289H380.259V181.589H377.519V180.509H377.479C377.019 181.109 375.979 181.889 374.439 181.889ZM372.759 176.469C372.759 178.469 373.599 179.789 375.119 179.789C376.599 179.789 377.479 178.589 377.479 176.469C377.479 174.369 376.599 173.169 375.119 173.169C373.599 173.169 372.759 174.469 372.759 176.469Z" fill="white"/>
<path d="M362.831 181.909C359.551 181.909 357.631 179.649 357.631 176.469C357.631 173.389 359.511 171.029 362.831 171.029C366.171 171.029 367.931 173.089 367.931 176.629V177.209H360.391C360.411 178.729 361.411 179.809 362.911 179.809C364.291 179.809 364.851 179.049 365.051 178.469H367.831C367.271 180.509 365.651 181.909 362.831 181.909ZM360.391 175.389H365.151C365.151 173.969 364.251 173.089 362.811 173.089C361.451 173.089 360.511 173.949 360.391 175.389Z" fill="white"/>
<path d="M352.761 176.629V181.589H350.021V171.369H352.761V173.129H352.801C353.321 171.989 354.181 171.229 355.401 171.229C355.701 171.229 355.961 171.229 356.301 171.289V173.749C356.041 173.709 355.861 173.689 355.641 173.689C354.061 173.689 352.761 174.769 352.761 176.629Z" fill="white"/>
<path d="M342.881 181.909C339.721 181.909 337.701 179.669 337.701 176.469C337.701 173.289 339.721 171.029 342.841 171.029C345.661 171.029 347.441 172.769 347.701 175.149H344.921C344.821 174.229 344.381 173.149 342.881 173.149C341.241 173.149 340.521 174.549 340.521 176.469C340.521 178.389 341.221 179.789 342.881 179.789C344.361 179.789 344.821 178.769 344.921 177.749H347.701C347.541 180.169 345.701 181.909 342.881 181.909Z" fill="white"/>
<g clip-path="url(#clip1_9062_13784)">
<path d="M100.888 124.152C100.757 125.683 100.023 127.102 98.8449 128.1C97.6671 129.098 96.1401 129.596 94.5947 129.486H55.0965C53.5512 129.596 52.0242 129.098 50.8463 128.1C49.6685 127.102 48.9346 125.683 48.8036 124.152V95.3784C48.9346 93.8472 49.6685 92.4286 50.8463 91.4302C52.0242 90.4318 53.5512 89.9339 55.0965 90.0442H94.5947C96.1342 89.9339 97.6554 90.4295 98.8291 91.4238C100.003 92.418 100.734 93.8309 100.865 95.3563L100.888 124.152Z" fill="#9E9E9E"/>
<path d="M100.888 123.51C100.751 125.039 100.016 126.454 98.8391 127.451C97.6625 128.448 96.1388 128.949 94.5947 128.844H55.0965C53.5512 128.955 52.0242 128.456 50.8463 127.458C49.6685 126.46 48.9346 125.041 48.8036 123.51V94.7364C48.9346 93.2052 49.6685 91.7866 50.8463 90.7882C52.0242 89.7898 53.5512 89.2919 55.0965 89.4022H94.5947C96.1364 89.2979 97.6576 89.7988 98.8305 90.7966C100.003 91.7944 100.734 93.2093 100.865 94.7364L100.888 123.51Z" fill="url(#paint2_linear_9062_13784)"/>
<g opacity="0.8">
<path opacity="0.8" d="M65.5867 89.3137H65.1851V128.888H65.5867V89.3137Z" fill="#232323"/>
<path opacity="0.8" d="M84.3537 89.3137H83.9743V128.888H84.3537V89.3137Z" fill="#232323"/>
<path opacity="0.8" d="M65.1842 100.867H48.5815V100.535H65.1618L65.1842 100.867Z" fill="#232323"/>
<path opacity="0.8" d="M101.021 100.535H84.4181V100.867H101.021V100.535Z" fill="#232323"/>
<path opacity="0.8" d="M84.2867 95.9094H65.2964V96.2414H84.2867V95.9094Z" fill="#232323"/>
<path opacity="0.8" d="M84.2645 121.938H65.2741V122.27H84.2645V121.938Z" fill="#232323"/>
<path opacity="0.8" d="M65.2731 108.858H48.6705V109.19H65.2731V108.858Z" fill="#232323"/>
<path opacity="0.8" d="M101.021 108.968H84.4181V109.3H101.021V108.968Z" fill="#232323"/>
<path opacity="0.8" d="M65.2731 117.822H48.6705V117.49H65.2731V117.822Z" fill="#232323"/>
<path opacity="0.8" d="M101.021 117.335H84.4181V117.667H101.021V117.335Z" fill="#232323"/>
</g>
</g>
<path d="M112.986 26.074H111.354C106.512 26.074 103.169 28.8031 102.414 33.3673L101.042 41.7644C100.675 44.0153 101.042 45.8695 102.128 47.1316C103.256 48.4584 105.092 49.1356 107.586 49.1356H109.233C113.885 49.1356 117.478 46.1524 118.216 41.7045L119.603 33.2882C119.963 31.1427 119.603 29.3533 118.549 28.1103C117.405 26.7691 115.48 26.074 112.986 26.074ZM109.255 44.0669C109.094 44.0681 108.935 44.0335 108.79 43.9656C108.645 43.8978 108.516 43.7983 108.414 43.6745C108.312 43.5507 108.239 43.4057 108.2 43.2501C108.161 43.0945 108.157 42.9321 108.189 42.7748L109.901 32.4132C109.965 32.0658 110.148 31.7516 110.419 31.524C110.689 31.2965 111.03 31.1698 111.383 31.1655C111.544 31.1645 111.702 31.1992 111.847 31.2671C111.993 31.3351 112.121 31.4346 112.223 31.5583C112.325 31.6821 112.398 31.827 112.437 31.9826C112.476 32.1381 112.479 32.3004 112.448 32.4576L110.737 42.8192C110.673 43.1666 110.489 43.4808 110.219 43.7083C109.949 43.9359 109.608 44.0626 109.255 44.0669Z" fill="white"/>
<path d="M70.9891 29.7357C70.9891 29.7357 71.0263 29.3761 70.6607 28.5539C69.9919 27.1828 68.4673 26.1136 66.3878 26.0741H66.1948C65.0853 26.0894 63.9804 26.222 62.8988 26.4696L62.1173 31.2363C62.2609 31.1881 62.4117 31.1646 62.5632 31.1668C62.7239 31.1649 62.883 31.199 63.0289 31.2665C63.1747 31.334 63.3037 31.4332 63.4063 31.5569C63.5088 31.6806 63.5825 31.8257 63.6218 31.9816C63.6611 32.1374 63.6651 32.3001 63.6335 32.4577L60.9667 48.6623H68.1641L70.8405 32.4109C70.9047 32.0636 71.0875 31.7494 71.3577 31.5221C71.6279 31.2947 71.9688 31.1683 72.3219 31.1644C72.4827 31.1623 72.642 31.1963 72.788 31.2637C72.934 31.3311 73.0631 31.4303 73.1658 31.554C73.2685 31.6778 73.3423 31.8229 73.3817 31.9789C73.4211 32.1348 73.4251 32.2976 73.3934 32.4553L70.7314 48.6623H77.9684L80.7095 32.0022C81.099 29.9215 80.9156 28.4401 80.1102 27.4548C79.4126 26.6158 78.2908 26.0945 76.735 26.0669H76.6428C73.3671 26.0669 71.8185 28.2447 70.9903 29.7333" fill="white"/>
<path d="M58.9154 40.4009L60.1679 32.73C60.5119 30.6565 60.2255 29.0432 59.2726 27.9357C58.2262 26.7024 56.3613 26.0756 53.7748 26.0756H52.4563C50.2066 26.0756 44.8466 26.7024 43.871 32.6066L42.1606 42.991C41.8801 44.6977 42.1606 46.1072 43.0727 47.1692C44.1874 48.4792 46.1243 49.1636 48.6796 49.1636H49.9981C54.6245 49.1636 57.8511 46.8048 58.4815 43.0054L58.6397 42.0609H51.7779C51.7576 42.1807 51.6329 42.8663 51.6329 42.8663C51.5659 43.2138 51.3811 43.5275 51.1097 43.7546C50.8383 43.9817 50.4969 44.1082 50.1431 44.1128C49.9827 44.1152 49.8239 44.0814 49.6785 44.0138C49.5331 43.9462 49.4048 43.8466 49.3032 43.7225C49.2017 43.5984 49.1295 43.4529 49.0921 43.297C49.0547 43.141 49.053 42.9787 49.0871 42.822C49.0871 42.822 49.3137 41.5323 49.5078 40.4021L58.9154 40.4009ZM53.4272 32.4567C53.4272 32.4567 53.1155 34.2642 52.8842 35.6114H50.3313C50.571 34.2342 50.8826 32.4124 50.8826 32.4124C50.9498 32.0649 51.1346 31.7512 51.4059 31.5239C51.6772 31.2967 52.0185 31.1698 52.3724 31.1647C52.5327 31.1626 52.6914 31.1968 52.8367 31.2646C52.982 31.3324 53.1101 31.4321 53.2114 31.5563C53.3128 31.6805 53.3849 31.826 53.4222 31.9819C53.4596 32.1378 53.4613 32.3001 53.4272 32.4567Z" fill="white"/>
<path d="M95.2464 19.7063L93.596 29.7299C93.596 29.7299 93.6331 29.3703 93.2675 28.5469C92.5987 27.1769 91.0742 26.1078 88.9947 26.0683H88.695C85.8184 26.0683 83.8827 28.6751 83.4537 31.2509L81.3825 43.5853C81.1105 45.225 81.464 46.7771 82.3522 47.8199C83.1121 48.7128 84.1992 49.1611 85.4888 49.1611H85.6003C88.6387 49.1611 90.898 46.1431 90.898 46.1431L90.4833 48.6601H97.6184L102.381 19.7039L95.2464 19.7063ZM93.1477 32.4566L91.4385 42.8398C91.3739 43.1872 91.1908 43.5015 90.9205 43.729C90.6501 43.9565 90.3092 44.0832 89.9559 44.0875C89.7955 44.0888 89.6368 44.0542 89.4914 43.9863C89.346 43.9184 89.2176 43.819 89.1156 43.6952C89.0135 43.5714 88.9403 43.4264 88.9013 43.2708C88.8624 43.1151 88.8586 42.9528 88.8904 42.7955L90.6007 32.4123C90.6646 32.0648 90.8474 31.7503 91.1176 31.5227C91.3879 31.2951 91.7289 31.1685 92.0822 31.1646C92.2426 31.1634 92.4013 31.198 92.5467 31.2658C92.692 31.3337 92.8204 31.4332 92.9225 31.5569C93.0246 31.6807 93.0978 31.8257 93.1367 31.9814C93.1757 32.137 93.1794 32.2994 93.1477 32.4566Z" fill="white"/>
<path d="M36.2235 19.6666L34.1416 32.2959C34.0217 33.0007 33.3193 33.5616 32.6122 33.5496C31.905 33.5376 31.4628 32.9503 31.5838 32.2504L33.6525 19.6654H26.3413C26.3413 19.6654 24.2138 32.6099 24.2042 32.6855H24.1982C23.8063 34.7794 23.9897 36.2692 24.7975 37.2604C25.4999 38.0994 26.6289 38.6292 28.1931 38.6567H28.2866C31.1475 38.6567 32.6997 37.0039 33.6034 35.5884L32.8231 40.3203C32.5403 42.0355 31.8954 43.1214 30.0077 43.3252C28.4723 43.487 27.0233 42.9152 27.0233 42.9152L26.1243 48.4179C26.1243 48.4179 27.885 49.0795 30.6789 49.119C36.1767 49.1969 38.8879 46.8298 39.6813 42.0127L43.4437 19.6666H36.2235Z" fill="white"/>
</g>
<defs>
<linearGradient id="paint0_linear_9062_13784" x1="215.499" y1="8.94813e-06" x2="215.499" y2="272" gradientUnits="userSpaceOnUse">
<stop stop-color="#FB8456"/>
<stop offset="1" stop-color="#DB4910"/>
</linearGradient>
<linearGradient id="paint1_linear_9062_13784" x1="224.304" y1="-5.11815" x2="224.304" y2="281.012" gradientUnits="userSpaceOnUse">
<stop stop-color="white"/>
<stop offset="1" stop-color="white" stop-opacity="0"/>
</linearGradient>
<linearGradient id="paint2_linear_9062_13784" x1="48.692" y1="109.167" x2="100.888" y2="109.167" gradientUnits="userSpaceOnUse">
<stop offset="0.01" stop-color="#BABABA"/>
<stop offset="0.23" stop-color="#E8E8E8"/>
<stop offset="0.52" stop-color="#BABABA"/>
<stop offset="0.76" stop-color="#DEDEDE"/>
<stop offset="0.88" stop-color="#E3E3E3"/>
<stop offset="1" stop-color="#EDEDED"/>
</linearGradient>
<clipPath id="clip0_9062_13784">
<rect width="431" height="272" rx="12" fill="white"/>
</clipPath>
<clipPath id="clip1_9062_13784">
<rect width="52.4411" height="40.1502" fill="white" transform="translate(48.582 89.3137)"/>
</clipPath>
</defs>
</svg>
