<svg width="1536" height="969" viewBox="0 0 1536 969" fill="none" xmlns="http://www.w3.org/2000/svg">
<g clip-path="url(#clip0_9120_2)">
<rect width="1536" height="969" rx="42.7657" fill="url(#paint0_linear_9120_2)"/>
<g opacity="0.5">
<path d="M1045.43 99.7504C629.742 120.251 818.188 154.282 951.386 172.307C1084.58 190.332 1356.22 202.283 1727.26 286.364C2089.37 368.382 2211.72 472.038 2211.72 472.038V976.125H-612.976V737.356C-585.123 733.643 662.204 515.36 927.903 381.03C1142.3 272.649 778.125 196.748 708.217 178.524C638.309 160.299 503.788 131.206 694.497 116.652C890.618 101.687 1004.52 100.751 1017.99 100.693L1045.43 99.7504ZM1143.32 768.255C907.747 880.344 668.222 970.65 668.081 970.704L767.663 976.124C767.858 976.047 1000.17 884.028 1222.8 768.255H1143.32ZM1013.91 100.958C935.246 104.956 667.91 113.834 688.902 137.678C716.783 169.29 1114.26 206.195 1362.05 276.262C1607.36 345.647 1600.24 427.294 1600.24 427.294C1600.24 488.043 1486.87 585.326 1343.82 665.523H1404.42C1522.5 591.543 1612.66 516.141 1623.37 453.543C1652.03 285.866 1110.74 220.578 943.771 188.013C943.68 188 685.346 149.526 695.648 132.656C705.157 117.106 972.235 103.092 1013.91 100.958Z" fill="url(#paint1_linear_9120_2)"/>
</g>
<path d="M1344.56 713.629H1263.08V859.528H1344.56V713.629Z" fill="#F16623"/>
<path d="M1268.27 786.548C1268.25 772.507 1271.44 758.646 1277.59 746.013C1283.75 733.38 1292.7 722.306 1303.78 713.629C1290.04 702.858 1273.54 696.158 1256.16 694.293C1238.78 692.429 1221.22 695.476 1205.5 703.086C1189.77 710.696 1176.51 722.562 1167.24 737.326C1157.96 752.091 1153.04 769.159 1153.04 786.578C1153.04 803.997 1157.96 821.065 1167.24 835.83C1176.51 850.595 1189.77 862.46 1205.5 870.07C1221.22 877.68 1238.78 880.727 1256.16 878.863C1273.54 876.998 1290.04 870.298 1303.78 859.528C1292.69 850.844 1283.73 839.76 1277.58 827.116C1271.43 814.473 1268.24 800.6 1268.27 786.548Z" fill="#E41F27"/>
<path d="M1454.44 786.548C1454.44 803.957 1449.52 821.012 1440.25 835.768C1430.98 850.523 1417.73 862.383 1402.02 869.994C1386.31 877.605 1368.77 880.659 1351.4 878.809C1334.03 876.958 1317.53 870.277 1303.79 859.528C1314.87 850.842 1323.82 839.763 1329.98 827.127C1336.14 814.491 1339.34 800.626 1339.34 786.578C1339.34 772.53 1336.14 758.666 1329.98 746.029C1323.82 733.393 1314.87 722.314 1303.79 713.629C1317.53 702.883 1334.02 696.202 1351.38 694.349C1368.75 692.496 1386.29 695.546 1401.99 703.149C1417.7 710.753 1430.95 722.604 1440.23 737.351C1449.5 752.097 1454.43 769.145 1454.44 786.548V786.548Z" fill="#F99F1E"/>
<path d="M1399.24 647.79C1391.97 647.79 1388.48 644.654 1388.48 635.887V618.21H1383.34V610.726H1388.48V599.964H1398.24V610.726H1404.8V618.21H1398.24V635.816C1398.24 639.665 1399.59 640.235 1402.09 640.235C1403.23 640.235 1403.8 640.164 1405.15 639.95V647.077C1402.94 647.576 1401.23 647.79 1399.24 647.79Z" fill="white"/>
<path d="M1365.57 647.149V610.726H1375.33V647.149H1365.57ZM1365.42 605.595V596.4H1375.55V605.595H1365.42Z" fill="white"/>
<path d="M1334.43 648.218C1324.95 648.218 1318.39 640.876 1318.39 628.902C1318.39 616.928 1324.95 609.586 1334.43 609.586C1339.92 609.586 1343.62 612.366 1345.26 614.647H1345.41V596.186H1355.17V647.149H1345.41V643.3H1345.26C1343.62 645.438 1339.92 648.218 1334.43 648.218ZM1328.44 628.902C1328.44 636.03 1331.44 640.734 1336.85 640.734C1342.13 640.734 1345.26 636.457 1345.26 628.902C1345.26 621.418 1342.13 617.142 1336.85 617.142C1331.44 617.142 1328.44 621.775 1328.44 628.902Z" fill="white"/>
<path d="M1293.06 648.289C1281.37 648.289 1274.53 640.235 1274.53 628.902C1274.53 617.926 1281.23 609.515 1293.06 609.515C1304.96 609.515 1311.23 616.856 1311.23 629.472V631.539H1284.36C1284.43 636.956 1288 640.805 1293.34 640.805C1298.26 640.805 1300.26 638.097 1300.97 636.03H1310.88C1308.88 643.3 1303.11 648.289 1293.06 648.289ZM1284.36 625.053H1301.33C1301.33 619.993 1298.12 616.856 1292.99 616.856C1288.14 616.856 1284.79 619.921 1284.36 625.053Z" fill="white"/>
<path d="M1257.17 629.472V647.149H1247.4V610.726H1257.17V616.999H1257.31C1259.16 612.936 1262.23 610.228 1266.58 610.228C1267.65 610.228 1268.57 610.228 1269.78 610.441V619.208C1268.86 619.066 1268.22 618.995 1267.43 618.995C1261.8 618.995 1257.17 622.843 1257.17 629.472Z" fill="white"/>
<path d="M1221.96 648.289C1210.7 648.289 1203.5 640.306 1203.5 628.902C1203.5 617.569 1210.7 609.515 1221.82 609.515C1231.87 609.515 1238.21 615.716 1239.14 624.198H1229.23C1228.87 620.919 1227.31 617.07 1221.96 617.07C1216.11 617.07 1213.55 622.06 1213.55 628.902C1213.55 635.745 1216.04 640.734 1221.96 640.734C1227.23 640.734 1228.87 637.099 1229.23 633.464H1239.14C1238.57 642.088 1232.01 648.289 1221.96 648.289Z" fill="white"/>
<g clip-path="url(#clip1_9120_2)">
<path d="M359.544 442.454C359.077 447.911 356.462 452.965 352.264 456.523C348.067 460.081 342.625 461.856 337.117 461.463H196.354C190.846 461.856 185.404 460.081 181.207 456.523C177.009 452.965 174.394 447.911 173.927 442.454V339.91C174.394 334.453 177.009 329.398 181.207 325.84C185.404 322.282 190.846 320.507 196.354 320.9H337.117C342.604 320.507 348.025 322.273 352.208 325.817C356.391 329.36 358.998 334.395 359.465 339.831L359.544 442.454Z" fill="#9E9E9E"/>
<path d="M359.544 440.166C359.057 445.615 356.436 450.657 352.243 454.211C348.05 457.765 342.62 459.548 337.117 459.176H196.354C190.846 459.569 185.404 457.793 181.207 454.235C177.009 450.677 174.394 445.623 173.927 440.166V337.622C174.394 332.165 177.009 327.11 181.207 323.552C185.404 319.993 190.846 318.219 196.354 318.612H337.117C342.612 318.241 348.033 320.025 352.213 323.581C356.393 327.137 358.998 332.18 359.465 337.622L359.544 440.166Z" fill="url(#paint2_linear_9120_2)"/>
<g opacity="0.8">
<path opacity="0.8" d="M233.739 318.297H232.307V459.333H233.739V318.297Z" fill="#232323"/>
<path opacity="0.8" d="M300.621 318.297H299.269V459.333H300.621V318.297Z" fill="#232323"/>
<path opacity="0.8" d="M232.304 359.472H173.135V358.289H232.224L232.304 359.472Z" fill="#232323"/>
<path opacity="0.8" d="M360.018 358.289H300.849V359.472H360.018V358.289Z" fill="#232323"/>
<path opacity="0.8" d="M300.382 341.803H232.704V342.986H300.382V341.803Z" fill="#232323"/>
<path opacity="0.8" d="M300.302 434.565H232.625V435.748H300.302V434.565Z" fill="#232323"/>
<path opacity="0.8" d="M232.621 387.947H173.452V389.13H232.621V387.947Z" fill="#232323"/>
<path opacity="0.8" d="M360.018 388.342H300.849V389.525H360.018V388.342Z" fill="#232323"/>
<path opacity="0.8" d="M232.621 419.894H173.452V418.711H232.621V419.894Z" fill="#232323"/>
<path opacity="0.8" d="M360.018 418.158H300.849V419.341H360.018V418.158Z" fill="#232323"/>
</g>
</g>
<path d="M402.659 92.8886H396.845C379.588 92.8886 367.675 102.611 364.984 118.871L360.093 148.786C358.786 156.805 360.093 163.41 363.963 167.906C367.983 172.633 374.527 175.046 383.416 175.046H389.285C405.862 175.046 418.668 164.418 421.299 148.572L426.241 118.589C427.523 110.946 426.241 104.571 422.487 100.143C418.408 95.3651 411.548 92.8886 402.659 92.8886ZM389.362 156.988C388.79 156.993 388.224 156.869 387.706 156.628C387.188 156.386 386.731 156.031 386.367 155.591C386.003 155.15 385.742 154.633 385.603 154.079C385.464 153.524 385.451 152.946 385.564 152.385L391.664 115.472C391.894 114.234 392.547 113.115 393.51 112.304C394.474 111.494 395.688 111.042 396.948 111.027C397.519 111.023 398.084 111.147 398.602 111.389C399.119 111.631 399.576 111.986 399.94 112.427C400.303 112.867 400.563 113.384 400.702 113.938C400.841 114.492 400.854 115.07 400.741 115.63L394.645 152.543C394.415 153.781 393.763 154.9 392.799 155.711C391.836 156.522 390.621 156.973 389.362 156.988V156.988Z" fill="white"/>
<path d="M252.991 105.934C252.991 105.934 253.123 104.653 251.821 101.723C249.437 96.8387 244.004 93.0299 236.593 92.889H235.905C231.951 92.9436 228.013 93.4159 224.159 94.2981L221.374 111.279C221.885 111.108 222.423 111.024 222.963 111.032C223.535 111.025 224.102 111.146 224.622 111.387C225.142 111.627 225.602 111.981 225.967 112.422C226.333 112.862 226.595 113.379 226.735 113.934C226.875 114.49 226.89 115.069 226.777 115.63L217.273 173.36H242.923L252.461 115.464C252.69 114.227 253.342 113.107 254.305 112.297C255.268 111.487 256.482 111.037 257.741 111.023C258.314 111.016 258.881 111.137 259.402 111.377C259.922 111.617 260.382 111.971 260.748 112.411C261.114 112.852 261.377 113.369 261.518 113.925C261.658 114.48 261.672 115.06 261.56 115.622L252.073 173.36H277.864L287.633 114.008C289.021 106.595 288.367 101.318 285.497 97.8079C283.011 94.819 279.013 92.9616 273.468 92.8634H273.139C261.466 92.8634 255.947 100.622 252.995 105.925" fill="white"/>
<path d="M209.963 143.928L214.426 116.601C215.652 109.214 214.631 103.467 211.236 99.5212C207.507 95.1274 200.86 92.8943 191.642 92.8943H186.944C178.926 92.8943 159.824 95.1274 156.347 116.161L150.252 153.155C149.252 159.236 150.252 164.257 153.502 168.04C157.475 172.707 164.378 175.145 173.484 175.145H178.183C194.671 175.145 206.17 166.742 208.416 153.207L208.98 149.842H184.526C184.453 150.269 184.009 152.711 184.009 152.711C183.77 153.949 183.112 155.067 182.145 155.876C181.178 156.685 179.961 157.136 178.7 157.152C178.128 157.161 177.562 157.04 177.044 156.799C176.526 156.558 176.069 156.204 175.707 155.762C175.345 155.319 175.088 154.801 174.954 154.246C174.821 153.69 174.815 153.112 174.937 152.553C174.937 152.553 175.744 147.959 176.436 143.932L209.963 143.928ZM190.404 115.627C190.404 115.627 189.293 122.066 188.469 126.866H179.37C180.225 121.959 181.335 115.469 181.335 115.469C181.575 114.231 182.233 113.114 183.2 112.304C184.167 111.494 185.384 111.043 186.645 111.024C187.216 111.017 187.782 111.139 188.299 111.38C188.817 111.622 189.274 111.977 189.635 112.419C189.996 112.862 190.253 113.38 190.386 113.935C190.519 114.491 190.525 115.069 190.404 115.627V115.627Z" fill="white"/>
<path d="M339.44 70.2036L333.558 105.913C333.558 105.913 333.69 104.632 332.387 101.698C330.004 96.8179 324.571 93.0091 317.16 92.8682H316.092C305.84 92.8682 298.942 102.155 297.413 111.331L290.032 155.273C289.062 161.114 290.322 166.644 293.487 170.358C296.195 173.539 300.07 175.136 304.666 175.136H305.063C315.891 175.136 323.943 164.385 323.943 164.385L322.465 173.352H347.893L364.868 70.195L339.44 70.2036ZM331.96 115.627L325.869 152.617C325.639 153.855 324.986 154.974 324.023 155.785C323.059 156.595 321.845 157.047 320.585 157.062C320.014 157.066 319.448 156.943 318.93 156.701C318.412 156.459 317.954 156.105 317.591 155.664C317.227 155.223 316.966 154.707 316.827 154.152C316.688 153.598 316.675 153.019 316.788 152.459L322.883 115.469C323.111 114.231 323.762 113.11 324.726 112.3C325.689 111.489 326.904 111.038 328.163 111.024C328.735 111.02 329.3 111.143 329.818 111.385C330.336 111.626 330.794 111.981 331.158 112.422C331.522 112.863 331.782 113.379 331.921 113.934C332.06 114.488 332.073 115.067 331.96 115.627V115.627Z" fill="white"/>
<path d="M129.093 70.0623L121.674 115.054C121.247 117.565 118.744 119.563 116.223 119.521C113.703 119.478 112.127 117.386 112.558 114.892L119.931 70.058H93.875C93.875 70.058 86.2932 116.173 86.259 116.442H86.2376C84.8409 123.901 85.4944 129.209 88.3734 132.74C90.8765 135.729 94.9002 137.616 100.474 137.715H100.808C111.004 137.715 116.535 131.826 119.756 126.784L116.975 143.641C115.967 149.751 113.669 153.62 106.941 154.346C101.47 154.922 96.3055 152.886 96.3055 152.886L93.1019 172.489C93.1019 172.489 99.3767 174.846 109.333 174.987C128.927 175.264 138.589 166.831 141.416 149.67L154.825 70.0623H129.093Z" fill="white"/>
</g>
<defs>
<linearGradient id="paint0_linear_9120_2" x1="767.997" y1="3.18777e-05" x2="767.997" y2="969" gradientUnits="userSpaceOnUse">
<stop stop-color="#FB8456"/>
<stop offset="1" stop-color="#DB4910"/>
</linearGradient>
<linearGradient id="paint1_linear_9120_2" x1="799.373" y1="-18.233" x2="799.373" y2="1001.11" gradientUnits="userSpaceOnUse">
<stop stop-color="white"/>
<stop offset="1" stop-color="white" stop-opacity="0"/>
</linearGradient>
<linearGradient id="paint2_linear_9120_2" x1="173.529" y1="389.052" x2="359.544" y2="389.052" gradientUnits="userSpaceOnUse">
<stop offset="0.01" stop-color="#BABABA"/>
<stop offset="0.23" stop-color="#E8E8E8"/>
<stop offset="0.52" stop-color="#BABABA"/>
<stop offset="0.76" stop-color="#DEDEDE"/>
<stop offset="0.88" stop-color="#E3E3E3"/>
<stop offset="1" stop-color="#EDEDED"/>
</linearGradient>
<clipPath id="clip0_9120_2">
<rect width="1536" height="969" rx="42.7657" fill="white"/>
</clipPath>
<clipPath id="clip1_9120_2">
<rect width="186.89" height="143.087" fill="white" transform="translate(173.137 318.297)"/>
</clipPath>
</defs>
</svg>
