<svg width="24" height="24" viewBox="0 0 24 24" fill="none" xmlns="http://www.w3.org/2000/svg">
<path d="M8.4 4H15.7C15.8 4 16 3.9 16 3.7V2.4C16 2.2 15.8 2 15.6 2H8.4C8.2 2 8 2.2 8 2.4V3.7C8 3.9 8.2 4 8.4 4Z" fill="#0A0A2D"/>
<path d="M18.9 7.99998L19.6 7.29998C19.8001 7.09998 19.8001 6.89998 19.6 6.69998L18.7 5.79998C18.5 5.59998 18.3 5.59998 18.1 5.79998L17.4 6.49998C16 5.29998 14.1 4.59998 12 4.59998C7.20005 4.59998 3.30005 8.49998 3.30005 13.3C3.30005 18.1 7.20005 22 12 22C16.8 22 20.7001 18.1 20.7001 13.3C20.7001 11.3 20 9.39998 18.9 7.99998ZM12 20.1C8.30005 20.1 5.20005 17.1 5.20005 13.3H12V6.49998C15.7 6.49998 18.8 9.49998 18.8 13.3C18.8 17.1 15.8 20.1 12 20.1Z" fill="#0A0A2D"/>
</svg>
