<svg fill="none" height="40" viewBox="0 0 40 40" width="40" xmlns="http://www.w3.org/2000/svg"><rect fill="#0a0a2d" height="40" rx="4" width="40"/><path d="m21.9596 8.00097-1.6963 10.29023c-.0976.5742-.6699 1.0313-1.2461 1.0215s-.9365-.4883-.8379-1.0586l1.6856-10.2541h-5.9572s-1.7334 10.5471-1.7412 10.6086h-.0049c-.3193 1.7061-.1699 2.92.4883 3.7276.5723.6836 1.4922 1.1153 2.7667 1.1377h.0761c2.3311 0 3.5958-1.3467 4.3321-2.5l-.6357 3.8555c-.2305 1.3975-.7559 2.2823-2.294 2.4483-1.251.1318-2.4317-.334-2.4317-.334l-.7324 4.4835s1.4346.5391 3.711.5713c4.4796.0635 6.6886-1.8653 7.3351-5.7902l3.0655-18.20733z" fill="#fff"/></svg>