<svg width="52" height="16" viewBox="0 0 52 16" fill="none" xmlns="http://www.w3.org/2000/svg">
<path d="M48.2665 3.47607H47.3817C44.7552 3.47607 42.942 4.95638 42.5325 7.432L41.7881 11.9867C41.5892 13.2076 41.7881 14.2133 42.3771 14.8979C42.9889 15.6176 43.9848 15.9849 45.3377 15.9849H46.231C48.754 15.9849 50.7031 14.3667 51.1035 11.9542L51.8557 7.3891C52.0508 6.2254 51.8557 5.25478 51.2843 4.58061C50.6634 3.85314 49.6193 3.47607 48.2665 3.47607ZM46.2427 13.2355C46.1556 13.2362 46.0696 13.2174 45.9907 13.1806C45.9119 13.1438 45.8422 13.0899 45.7869 13.0227C45.7315 12.9556 45.6918 12.8769 45.6707 12.7925C45.6495 12.7081 45.6475 12.62 45.6647 12.5347L46.5931 6.91451C46.6281 6.72608 46.7274 6.55563 46.8741 6.43222C47.0207 6.30881 47.2056 6.24008 47.3973 6.23775C47.4842 6.23719 47.5702 6.25602 47.649 6.29288C47.7278 6.32974 47.7973 6.3837 47.8526 6.45082C47.9079 6.51795 47.9476 6.59656 47.9687 6.68093C47.9897 6.7653 47.9918 6.85332 47.9746 6.93857L47.0469 12.5588C47.0118 12.7472 46.9125 12.9177 46.7659 13.0411C46.6192 13.1645 46.4343 13.2332 46.2427 13.2355Z" fill="#FA652C"/>
<path d="M25.4875 5.46216C25.4875 5.46216 25.5077 5.26713 25.3094 4.82115C24.9466 4.07742 24.1197 3.49752 22.9917 3.47607H22.8871C22.2852 3.48439 21.686 3.5563 21.0992 3.6906L20.6754 6.2761C20.7533 6.24995 20.8351 6.2372 20.9172 6.23839C21.0044 6.23737 21.0907 6.25583 21.1698 6.29244C21.2489 6.32905 21.3189 6.38288 21.3745 6.44999C21.4302 6.5171 21.4701 6.5958 21.4914 6.68033C21.5128 6.76486 21.5149 6.85309 21.4978 6.93856L20.0513 15.7281H23.9552L25.4069 6.91321C25.4417 6.72484 25.5409 6.55441 25.6874 6.43108C25.834 6.30775 26.0189 6.23918 26.2104 6.23709C26.2977 6.23597 26.384 6.25436 26.4632 6.29093C26.5424 6.3275 26.6124 6.38131 26.6682 6.44844C26.7239 6.51556 26.7639 6.59429 26.7852 6.67887C26.8066 6.76345 26.8088 6.85173 26.7916 6.93726L25.3477 15.7281H29.2731L30.7599 6.69152C30.9712 5.56293 30.8717 4.75939 30.4348 4.225C30.0565 3.76992 29.448 3.48712 28.6041 3.47217H28.5541C26.7773 3.47217 25.9374 4.65342 25.4882 5.46086" fill="#FA652C"/>
<path d="M18.9381 11.2467L19.6174 7.08598C19.804 5.96129 19.6486 5.08624 19.1318 4.48554C18.5643 3.81657 17.5527 3.47656 16.1497 3.47656H15.4346C14.2144 3.47656 11.3071 3.81657 10.7779 7.01902L9.85016 12.6516C9.69804 13.5773 9.85016 14.3419 10.3449 14.9179C10.9495 15.6285 12.0001 15.9997 13.3861 15.9997H14.1012C16.6107 15.9997 18.3608 14.7202 18.7027 12.6594L18.7885 12.1471H15.0667C15.0556 12.2121 14.988 12.584 14.988 12.584C14.9517 12.7724 14.8514 12.9426 14.7042 13.0658C14.557 13.189 14.3718 13.2576 14.1799 13.2601C14.0929 13.2614 14.0068 13.243 13.9279 13.2064C13.849 13.1697 13.7794 13.1157 13.7244 13.0484C13.6693 12.9811 13.6302 12.9022 13.6099 12.8176C13.5896 12.733 13.5886 12.6449 13.6072 12.5599C13.6072 12.5599 13.73 11.8604 13.8353 11.2473L18.9381 11.2467ZM15.9612 6.93776C15.9612 6.93776 15.7922 7.91813 15.6667 8.64885H14.282C14.412 7.90187 14.581 6.9137 14.581 6.9137C14.6175 6.72522 14.7177 6.55504 14.8649 6.43179C15.012 6.30853 15.1972 6.23972 15.3891 6.23694C15.4761 6.23583 15.5621 6.25435 15.6409 6.29113C15.7197 6.32791 15.7892 6.382 15.8442 6.44936C15.8992 6.51672 15.9383 6.59562 15.9585 6.68018C15.9788 6.76475 15.9797 6.85279 15.9612 6.93776Z" fill="#FA652C"/>
<path d="M38.6444 0.0222976L37.7492 5.45918C37.7492 5.45918 37.7694 5.26415 37.5711 4.81752C37.2083 4.07444 36.3814 3.49454 35.2534 3.47309H35.0909C33.5306 3.47309 32.4807 4.88708 32.248 6.28417L31.1246 12.9745C30.977 13.8638 31.1688 14.7057 31.6505 15.2713C32.0627 15.7556 32.6523 15.9988 33.3519 15.9988H33.4123C35.0604 15.9988 36.2858 14.3618 36.2858 14.3618L36.0609 15.727H39.931L42.5145 0.0209961L38.6444 0.0222976ZM37.5061 6.93819L36.579 12.5701C36.544 12.7585 36.4447 12.929 36.298 13.0524C36.1514 13.1758 35.9665 13.2445 35.7748 13.2469C35.6878 13.2475 35.6017 13.2288 35.5229 13.1919C35.444 13.1551 35.3744 13.1012 35.319 13.034C35.2636 12.9669 35.224 12.8883 35.2028 12.8038C35.1817 12.7194 35.1797 12.6314 35.1969 12.546L36.1246 6.91413C36.1593 6.72564 36.2584 6.55507 36.405 6.43161C36.5515 6.30815 36.7365 6.23948 36.9281 6.23737C37.0151 6.23671 37.1012 6.25547 37.1801 6.29229C37.2589 6.32911 37.3286 6.38305 37.3839 6.45019C37.4393 6.51733 37.479 6.59597 37.5001 6.68039C37.5213 6.76481 37.5233 6.85288 37.5061 6.93819Z" fill="#FA652C"/>
<path d="M6.63016 0.000648762L5.50091 6.85087C5.4359 7.23314 5.05494 7.53739 4.67137 7.53089C4.28781 7.52439 4.04791 7.20584 4.11357 6.82617L5.23567 0H1.26999C1.26999 0 0.116042 7.0212 0.110841 7.06216H0.107587C-0.104999 8.1979 -0.00553209 9.006 0.432643 9.54364C0.813608 9.99872 1.42601 10.2861 2.27441 10.301H2.32512C3.87694 10.301 4.71883 9.40451 5.20901 8.63673L4.78579 11.2034C4.63236 12.1337 4.28261 12.7227 3.25868 12.8332C2.42589 12.921 1.6399 12.6109 1.6399 12.6109L1.15232 15.5955C1.15232 15.5955 2.10733 15.9544 3.62274 15.9758C6.6048 16.0181 8.07535 14.7341 8.50573 12.1213L10.5464 0.000648762H6.63016Z" fill="#FA652C"/>
</svg>
