<svg fill="none" height="62" viewBox="0 0 200 62" width="200" xmlns="http://www.w3.org/2000/svg"><g fill="#0a0a2d"><path d="m185.894 13.3889h-3.408c-10.115 0-17.099 5.7013-18.676 15.2359l-2.867 17.5419c-.766 4.7022 0 8.5757 2.269 11.2122 2.356 2.7718 6.192 4.1864 11.402 4.1864h3.44c9.718 0 17.224-6.232 18.767-15.5238l2.897-17.582c.751-4.4818 0-8.2201-2.201-10.8166-2.391-2.8018-6.413-4.254-11.623-4.254zm-7.795 37.5877c-.335.0025-.666-.0697-.97-.2115s-.572-.3496-.785-.6082c-.213-.2585-.366-.5614-.448-.8866-.081-.3251-.089-.6643-.023-.9928l3.576-21.6458c.135-.7257.517-1.3822 1.082-1.8575s1.277-.74 2.015-.749c.335-.0021.666.0704.97.2124.303.1419.571.3498.784.6083s.366.5613.447.8862c.081.325.089.6639.023.9923l-3.573 21.6457c-.135.7257-.518 1.3822-1.083 1.8575-.564.4753-1.276.74-2.015.749z"/><path d="m98.1632 21.0378s.0776-.7512-.686-2.4688c-1.3972-2.8644-4.5821-5.0978-8.9262-5.1804h-.4032c-2.3179.032-4.6259.309-6.8855.8262l-1.6325 9.9578c.3-.1007.6149-.1498.9314-.1452.3357-.004.6681.0672.9728.2082.3048.141.5741.3483.7884.6067.2143.2585.3682.5616.4503.8872.0821.3255.0905.6653.0244.9945l-5.571 33.852h15.0355l5.5911-33.9496c.1341-.7255.516-1.3819 1.0805-1.8569s1.2768-.7391 2.0138-.7471c.336-.0043.669.0665.974.2073.305.1409.575.3481.789.6066.215.2586.369.5618.451.8875.083.3258.091.6658.025.9952l-5.5611 33.857h15.1181l5.726-34.8034c.814-4.3467.431-7.4415-1.252-9.4996-1.457-1.7527-3.8-2.8419-7.05-2.8995h-.193c-6.843 0-10.0781 4.5495-11.8083 7.6593"/><path d="m72.9384 43.3163 2.6165-16.0246c.7186-4.3316.1202-7.7018-1.8703-10.0153-2.1859-2.5765-6.0819-3.886-11.4852-3.886h-2.7542c-4.6997 0-15.8969 1.3095-17.935 13.6434l-3.573 21.6933c-.5859 3.5655 0 6.51 1.9054 8.7284 2.3286 2.7367 6.3748 4.1664 11.713 4.1664h2.7542c9.6648 0 16.4052-4.9275 17.7222-12.8647l.3305-1.9731h-14.3345c-.0426.2504-.3029 1.6826-.3029 1.6826-.14.7259-.526 1.3813-1.093 1.8556-.5669.4744-1.2802.7387-2.0193.7484-.335.0051-.6668-.0657-.9706-.2069s-.5717-.3492-.7839-.6085c-.2121-.2593-.3628-.5632-.441-.8889-.0782-.3258-.0818-.665-.0104-.9923 0 0 .4732-2.6942.8788-5.0553zm-11.4651-16.5955s-.651 3.7758-1.1342 6.5902h-5.3332c.5007-2.877 1.1518-6.6828 1.1518-6.6828.1403-.7259.5263-1.3813 1.0931-1.8561.5668-.4747 1.2799-.7397 2.0191-.7504.3349-.0043.6664.0671.9699.2087.3035.1417.5711.35.7828.6094.2118.2595.3623.5633.4404.889.078.3257.0815.6648.0103.992z"/><path d="m148.835.0850907-3.448 20.9396093s.077-.7511-.686-2.4713c-1.397-2.8619-4.582-5.0953-8.926-5.1779h-.626c-6.01 0-10.053 5.4459-10.95 10.8266l-4.326 25.7671c-.569 3.4252.17 6.6677 2.025 8.846 1.588 1.8654 3.859 2.8018 6.553 2.8018h.233c6.347 0 11.067-6.3046 11.067-6.3046l-.867 5.258h14.906l9.95-60.4903219zm-4.385 26.6359093-3.57 21.6908c-.135.7257-.518 1.3822-1.082 1.8575-.565.4753-1.277.74-2.015.749-.336.0025-.667-.0698-.971-.2116-.303-.1418-.572-.3495-.785-.6081s-.366-.5615-.447-.8866c-.082-.3251-.09-.6643-.023-.9929l3.573-21.6908c.133-.7259.515-1.3829 1.08-1.8584.564-.4755 1.276-.7399 2.014-.7481.336-.0025.667.0698.971.2116s.572.3495.785.6081.366.5615.447.8866c.082.3251.09.6643.023.9929z"/><path d="m25.5354.00249865-4.3491 26.38300135c-.2504 1.4722-1.7177 2.6441-3.195 2.619-1.4772-.025-2.4011-1.2519-2.1483-2.7142l4.3217-26.2903h-15.27347s-4.444305 27.0415-4.464336 27.1992h-.012532c-.818756 4.3743-.4356683 7.4865 1.251918 9.5572 1.46726 1.7527 3.82588 2.8594 7.0934 2.917h.1953c5.97672 0 9.21912-3.4528 11.10702-6.4098l-1.63 9.8851c-.5909 3.583-1.9379 5.8515-5.8815 6.2772-3.20743.338-6.23458-.8564-6.23458-.8564l-1.87788 11.4952s3.67815 1.3821 9.51456 1.4647c11.4852.1628 17.1489-4.7823 18.8064-14.8453l7.8596-46.68160135z"/></g></svg>