<svg fill="none" height="22" viewBox="0 0 67 22" width="67" xmlns="http://www.w3.org/2000/svg"><g fill="#fff"><path d="m62.1398 4.77344h-1.142c-3.3687 0-5.7097 1.9482-6.2236 5.25426l-.9707 6.0216c-.2284 1.594 0 2.9519.7423 3.8374.7994.9446 2.0555 1.4169 3.8255 1.4169h1.142c3.2546 0 5.7669-2.1253 6.2807-5.3723l.9707-6.08075c.2284-1.53494 0-2.83374-.7423-3.71928-.7993-.88554-2.1126-1.35783-3.8826-1.35783zm-2.5694 12.92896c-.1142 0-.2284 0-.3426-.0591-.1142-.059-.1713-.118-.2855-.2361-.0571-.1181-.1142-.1771-.1713-.2952 0-.1181-.0571-.2361 0-.3542l1.1991-7.43858c.0571-.23615.1713-.47228.3426-.64939s.3996-.23615.6851-.23615c.1142 0 .2284 0 .3426.05904.1142.05903.1713.11807.2855.23614.0571.11807.1142.17711.1713.29518 0 .11807.0571.23615 0 .35422l-1.1991 7.43854c-.057.2362-.1712.4723-.3425.6494-.2284.1771-.4568.2362-.6852.2362z"/><path d="m32.9056 7.37103s0-.23615-.2284-.82651c-.4568-1.00361-1.5416-1.77108-2.9691-1.77108h-.1141c-.7994 0-1.5417.11807-2.284.29518l-.5709 3.4241c.1142-.05904.2284-.05904.2855-.05904.1142 0 .2283 0 .3425.05904.1142.05903.1713.11806.2855.23614.0571.11807.1142.17711.1713.29518s.0571.23615 0 .35422l-1.8842 11.68914h5.0246l1.8842-11.68914c.0571-.23615.1713-.47229.3426-.6494s.3997-.23614.6852-.23614c.1142 0 .2284 0 .3426.05904.1142.05903.1713.11806.2854.23614.0571.11807.1142.17711.1713.29518 0 .11807.0571.23615 0 .35422l-1.8271 11.6891h5.0246l1.8842-11.98428c.2855-1.47591.1713-2.53856-.3997-3.24699-.5138-.59036-1.2561-1.00362-2.341-1.00362h-.0571c-2.3981-.11807-3.4829 1.41687-4.0539 2.47952z"/><path d="m24.4551 15.1052.8565-5.54939c.2284-1.47591.0571-2.65664-.6281-3.48314-.7423-.88554-2.0555-1.35783-3.8255-1.35783h-.8565c-1.5416 0-5.3101.47229-5.9953 4.7229l-1.199 7.49756c-.1713 1.2398 0 2.2434.6281 3.0109.7993.9445 2.1126 1.4168 3.8826 1.4168h.9136c3.1974 0 5.4813-1.712 5.9381-4.4277l.1142-.7084h-4.7962c0 .059-.1142.5904-.1142.5904-.0571.2361-.1713.4722-.3426.6493-.1713.1772-.3997.2362-.6851.2362-.1142 0-.2284 0-.3426-.059-.1142-.0591-.1713-.1181-.2855-.2362-.0571-.1181-.1142-.1771-.1713-.2952 0-.118 0-.2361 0-.3542 0 0 .1713-.9446.2855-1.7711zm-3.8255-5.7265s-.2284 1.2988-.3997 2.3024h-1.77c.1712-1.0036.3996-2.3024.3996-2.3024.0571-.23615.1713-.4723.3426-.64941.1713-.1771.3997-.23614.6852-.23614.1142 0 .2284.00001.3426.05904.1142.05904.1713.11807.2855.23614.0571.11808.1142.17711.1713.29519.0571.11807 0 .1771-.0571.29518z"/><path d="m49.8064.167969-1.142 7.202421s0-.23615-.2284-.82652c-.4568-1.00361-1.5416-1.77108-2.9691-1.77108h-.2283c-1.9985 0-3.3688 1.88916-3.6543 3.71928l-1.4274 8.91443c-.1713 1.1808.0571 2.3024.6851 3.0699.5139.6494 1.3133.9446 2.1697.9446h.0571c2.1127 0 3.7114-2.1844 3.7114-2.1844l-.2855 1.8302h4.9675l3.3117-20.839791zm-1.4846 9.209641-1.199 7.49759c-.0571.2361-.1713.4723-.3426.6494s-.3997.2361-.6852.2361c-.1142 0-.2284 0-.3426-.059s-.1713-.1181-.2855-.2361c-.057-.1181-.1141-.1771-.1712-.2952 0-.1181-.0571-.2362 0-.3542l1.199-7.49763c.0571-.23614.1713-.47228.3426-.64939s.3997-.23615.6852-.23615c.1142 0 .2284 0 .3425.05904.1142.05904.1713.11807.2855.23614.0571.11807.1142.17711.1713.29518s.0571.23615 0 .35422z"/><path d="m8.69613.168406-1.42744 9.091574c-.0571.53132-.57097.88552-1.08485.88552s-.79937-.41324-.74227-.94456l1.42744-9.091565h-5.08169s-1.484542 9.327705-1.484542 9.386745c-.2854882 1.53498-.171295 2.59758.399682 3.30598.51388.5904 1.25615 1.0037 2.34101 1.0037h.05709c1.99842 0 3.08327-1.1808 3.71135-2.1844l-.57098 3.4241c-.17129 1.2398-.62807 2.0072-1.94132 2.1844-1.08485.118-2.05551-.2952-2.05551-.2952l-.62807 3.9554s1.19904.4723 3.19746.5313c3.82554.0591 5.70981-1.653 6.28071-5.1361l2.6265-16.116894z"/></g></svg>