<svg width="104" height="32" viewBox="0 0 104 32" fill="none" xmlns="http://www.w3.org/2000/svg">
<path d="M96.5351 6.95215H94.7655C89.5125 6.95215 85.8861 9.91281 85.0669 14.8642L83.5782 23.9737C83.1803 26.4156 83.5782 28.4271 84.7562 29.7962C85.9797 31.2356 87.9717 31.9703 90.6775 31.9703H92.4641C97.5103 31.9703 101.408 28.7339 102.209 23.9087L103.714 14.7784C104.104 12.4509 103.714 10.5096 102.571 9.16127C101.329 7.70629 99.241 6.95215 96.5351 6.95215ZM92.4875 26.4715C92.3134 26.4728 92.1413 26.4353 91.9836 26.3617C91.8259 26.288 91.6866 26.1801 91.5758 26.0459C91.4651 25.9116 91.3857 25.7543 91.3434 25.5854C91.3012 25.4166 91.2971 25.2404 91.3316 25.0698L93.1883 13.8292C93.2584 13.4523 93.457 13.1114 93.7503 12.8646C94.0436 12.6177 94.4134 12.4803 94.7967 12.4756C94.9706 12.4745 95.1426 12.5122 95.3002 12.5859C95.4577 12.6596 95.5969 12.7675 95.7075 12.9018C95.8181 13.036 95.8973 13.1933 95.9395 13.362C95.9817 13.5307 95.9857 13.7068 95.9513 13.8773L94.0959 25.1179C94.0258 25.4948 93.8272 25.8357 93.5339 26.0825C93.2406 26.3294 92.8708 26.4668 92.4875 26.4715Z" fill="#FA652C"/>
<path d="M50.9762 10.9244C50.9762 10.9244 51.0165 10.5343 50.6199 9.64235C49.8944 8.15487 48.2405 6.99505 45.9845 6.95214H45.7752C44.5715 6.96878 43.373 7.1126 42.1995 7.38122L41.3518 12.5523C41.5076 12.5 41.6711 12.4745 41.8354 12.4769C42.0098 12.4748 42.1824 12.5118 42.3406 12.585C42.4989 12.6582 42.6388 12.7659 42.7501 12.9001C42.8614 13.0343 42.9412 13.1917 42.9839 13.3608C43.0265 13.5299 43.0309 13.7063 42.9966 13.8773L40.1035 31.4566H47.9115L50.815 13.8266C50.8846 13.4498 51.0829 13.109 51.3761 12.8623C51.6692 12.6156 52.039 12.4785 52.4221 12.4743C52.5965 12.4721 52.7693 12.5088 52.9277 12.582C53.0861 12.6551 53.2261 12.7627 53.3376 12.897C53.449 13.0312 53.529 13.1887 53.5718 13.3579C53.6145 13.527 53.6188 13.7036 53.5845 13.8747L50.6966 31.4566H58.5476L61.5212 13.3832C61.9438 11.1259 61.7449 9.51883 60.8711 8.45002C60.1144 7.53985 58.8973 6.97424 57.2096 6.94434H57.1095C53.5559 6.94434 51.876 9.30689 50.9775 10.9218" fill="#FA652C"/>
<path d="M37.877 22.4937L39.2358 14.1721C39.609 11.9227 39.2982 10.1725 38.2645 8.97112C37.1294 7.63316 35.1062 6.95312 32.3002 6.95312H30.87C28.4294 6.95312 22.6147 7.63316 21.5563 14.0382L19.7008 25.3036C19.3966 27.1551 19.7008 28.6842 20.6903 29.8362C21.8995 31.2574 24.0007 31.9999 26.7729 31.9999H28.2032C33.2221 31.9999 36.7224 29.441 37.4063 25.3192L37.578 24.2946H30.134C30.1119 24.4246 29.9767 25.1683 29.9767 25.1683C29.904 25.5453 29.7036 25.8856 29.4091 26.132C29.1147 26.3783 28.7443 26.5156 28.3605 26.5206C28.1865 26.5232 28.0142 26.4865 27.8565 26.4132C27.6987 26.3398 27.5596 26.2318 27.4494 26.0972C27.3393 25.9625 27.261 25.8047 27.2204 25.6355C27.1798 25.4664 27.1779 25.2902 27.215 25.1202C27.215 25.1202 27.4607 23.7212 27.6714 22.495L37.877 22.4937ZM31.9232 13.8757C31.9232 13.8757 31.5851 15.8364 31.3342 17.2979H28.5646C28.8247 15.8039 29.1627 13.8275 29.1627 13.8275C29.2356 13.4506 29.4361 13.1102 29.7304 12.8637C30.0248 12.6172 30.395 12.4796 30.779 12.474C30.9529 12.4718 31.125 12.5088 31.2826 12.5824C31.4402 12.6559 31.5792 12.7641 31.6891 12.8988C31.7991 13.0336 31.8773 13.1914 31.9178 13.3605C31.9583 13.5296 31.9602 13.7057 31.9232 13.8757Z" fill="#FA652C"/>
<path d="M77.2901 0.0445952L75.4997 10.9186C75.4997 10.9186 75.54 10.5285 75.1434 9.63524C74.4179 8.14905 72.764 6.98923 70.508 6.94632H70.183C67.0624 6.94632 64.9624 9.77437 64.497 12.5686L62.2501 25.9495C61.955 27.7282 62.3386 29.4121 63.302 30.5433C64.1264 31.512 65.3057 31.9982 66.7048 31.9982H66.8257C70.1218 31.9982 72.5728 28.7242 72.5728 28.7242L72.1229 31.4547H79.8633L85.0305 0.0419922L77.2901 0.0445952ZM75.0134 13.8767L73.1592 25.1407C73.0892 25.5176 72.8905 25.8585 72.5972 26.1053C72.3039 26.3522 71.9341 26.4896 71.5508 26.4943C71.3768 26.4956 71.2046 26.4581 71.0469 26.3844C70.8892 26.3108 70.7499 26.2029 70.6392 26.0686C70.5284 25.9344 70.4491 25.7771 70.4068 25.6082C70.3645 25.4394 70.3605 25.2632 70.3949 25.0926L72.2504 13.8285C72.3197 13.4516 72.5179 13.1104 72.8111 12.8635C73.1043 12.6166 73.4742 12.4792 73.8575 12.475C74.0315 12.4737 74.2037 12.5112 74.3614 12.5848C74.5191 12.6585 74.6584 12.7664 74.7691 12.9006C74.8799 13.0349 74.9592 13.1922 75.0015 13.3611C75.0438 13.5299 75.0478 13.706 75.0134 13.8767Z" fill="#FA652C"/>
<path d="M13.2606 0.00129755L11.0021 13.702C10.872 14.4666 10.1101 15.0751 9.34294 15.0621C8.57579 15.0491 8.09599 14.412 8.22732 13.6526L10.4716 0H2.54003C2.54003 0 0.232089 14.0427 0.221687 14.1246H0.215179C-0.210003 16.3962 -0.0110644 18.0124 0.865304 19.0877C1.62725 19.9979 2.85209 20.5726 4.54892 20.6025H4.65034C7.75404 20.6025 9.43786 18.8094 10.4182 17.2738L9.57178 22.4072C9.26492 24.2679 8.56539 25.4459 6.5175 25.6669C4.85188 25.8425 3.27987 25.2223 3.27987 25.2223L2.30468 31.1917C2.30468 31.1917 4.21475 31.9094 7.24563 31.9523C13.2099 32.0369 16.151 29.4689 17.0118 24.2432L21.0933 0.00129755H13.2606Z" fill="#FA652C"/>
</svg>
